<?xml version="1.0" encoding="utf-8"?>
<!-- Generator: Adobe Illustrator 16.0.0, SVG Export Plug-In . SVG Version: 6.00 Build 0)  -->
<!DOCTYPE svg PUBLIC "-//W3C//DTD SVG 1.1//EN" "http://www.w3.org/Graphics/SVG/1.1/DTD/svg11.dtd">
<svg version="1.1" id="Layer_1" xmlns="http://www.w3.org/2000/svg" xmlns:xlink="http://www.w3.org/1999/xlink" x="0px" y="0px"
	 width="512px" height="512px" viewBox="0 0 512 512" enable-background="new 0 0 512 512" xml:space="preserve">
<path fill-rule="evenodd" clip-rule="evenodd" fill="none" d="M0,512C0,341.37,0,170.737,0,0c170.583,0,341.205,0,512,0
	c0,170.598,0,341.3,0,512C341.436,512,170.737,512,0,512z M190.495,329.02c2.907-0.504,5.885-0.765,8.71-1.56
	c19.715-5.545,39.255-11.785,59.13-16.655c18.06-4.425,36.476-7.404,54.735-11.02c-0.176,0.734-0.351,1.475-0.525,2.21
	c1.53,1.235,2.87,3,4.62,3.625c19.896,7.104,39.76,14.325,59.84,20.885c8.815,2.88,17.83,1.74,26.181-2.715
	c1.01-0.535,1.814-1.44,2.715-2.175c-0.075-0.415-0.146-0.825-0.211-1.235c-27.824,0.37-52.154-11.62-76.979-21.28
	c27.535-0.515,55.896-7.414,82.56,8.53c-0.435-3.12-1.06-5.694-2.615-7.425c-5.284-5.87-11.834-10.02-19.834-10.516
	c-10.795-0.664-21.66-1.244-32.445-0.754c-16.28,0.744-32.516,2.444-48.77,3.739c1.289-0.86,2.584-1.72,4.334-2.885
	c-3.444-2.56-6.449-4.88-9.539-7.08c-12.426-8.854-23.42-19.194-32.44-31.525c-10.896-14.885-19.223-31.063-24.07-48.935
	c0.667-0.815,1.805-1.56,1.93-2.45c1.975-13.952,3.835-27.92,5.66-41.892c0.08-0.608-0.37-1.285-0.73-2.43
	c-3.203,10.703-6.325,20.69-9.1,30.772c-0.61,2.21,0.015,4.76,0.073,7.152c-0.828-1.785-1.94-3.495-2.44-5.367
	c-5.623-21.025-8.798-42.4-8.513-64.195c0.055-4.087,0.458-8.442,1.942-12.18c2.333-5.87,8.047-6.375,11.598-1.14
	c2.39,3.525,4.002,7.64,5.565,11.645c1.23,3.16,1.85,6.56,2.865,10.302c4.005-9.585-1.275-23.652-9.908-27.387
	c-1.348-0.58-2.885-0.873-4.355-0.982c-13.465-1.005-22.265,6.995-22.47,20.735c-0.357,24.085,6.178,47.103,11.055,70.397
	c8.205,39.192,30.303,69.065,61.558,92.855c3.01,2.285,7.021,3.26,10.565,4.84c-1.256,0.365-2.485,0.88-3.761,1.08
	c-33.5,5.215-65.547,15.479-96.853,28.181c-3.682,1.494-6.722,4.564-10.057,6.904c1.438-3.154,2.8-6.34,4.325-9.449
	c13.877-28.256,27.647-56.561,41.778-84.688c3.545-7.055-0.265-11.72-3.555-18.31c-1.305,3.002-2.105,4.768-2.845,6.56
	c-17.107,41.342-36.708,81.407-61.182,118.952c-12.57,19.285-25.46,38.391-42.218,54.371c-3.695,3.524-8.742,5.99-13.595,7.814
	c-3.76,1.415-6.363-1.645-4.808-5.425c1.688-4.104,3.848-8.235,6.703-11.59c9.397-11.03,19.192-21.726,28.86-32.525
	c2.808-3.135,5.71-6.185,8.57-9.274c-1.17-0.445-1.79-0.291-2.268,0.06c-12.26,8.915-24.905,17.365-36.57,27
	c-5.183,4.285-9.15,10.575-12.272,16.665c-3.447,6.734-0.533,12.705,6.385,16.01c8.005,3.82,16.313,3.43,23.445-1.265
	c7.427-4.89,14.603-10.591,20.617-17.104c13.993-15.15,24.098-33.08,34.128-50.98C187.348,333.529,188.998,331.325,190.495,329.02z"
	/>
<path fill-rule="evenodd" clip-rule="evenodd" fill="#FFFFFF" d="M245.89,202.25c4.847,17.873,13.174,34.05,24.07,48.935
	c9.021,12.331,20.015,22.67,32.44,31.525c3.09,2.2,6.095,4.521,9.539,7.08c-1.75,1.165-3.045,2.024-4.334,2.885
	c-2.141,0.085-4.28,0.165-6.42,0.25c-3.545-1.58-7.556-2.555-10.565-4.84c-31.255-23.79-53.353-53.663-61.558-92.855
	c-4.877-23.295-11.413-46.313-11.055-70.397c0.205-13.74,9.005-21.74,22.47-20.735c1.47,0.11,3.007,0.402,4.355,0.982
	c8.632,3.735,13.913,17.802,9.908,27.387c-1.015-3.742-1.635-7.142-2.865-10.302c-1.563-4.005-3.175-8.12-5.565-11.645
	c-3.55-5.235-9.265-4.73-11.598,1.14c-1.485,3.737-1.887,8.092-1.942,12.18c-0.285,21.795,2.89,43.17,8.513,64.195
	c0.5,1.873,1.612,3.583,2.44,5.367C244.445,196.353,245.167,199.3,245.89,202.25z"/>
<path fill-rule="evenodd" clip-rule="evenodd" fill="#FFFFFF" d="M190.5,329.035c-1.502,2.29-3.152,4.494-4.487,6.875
	c-10.03,17.9-20.135,35.83-34.128,50.98c-6.015,6.514-13.19,12.215-20.617,17.104c-7.133,4.694-15.44,5.085-23.445,1.265
	c-6.917-3.305-9.832-9.275-6.385-16.01c3.123-6.09,7.09-12.38,12.272-16.665c11.665-9.635,24.31-18.085,36.57-27
	c0.478-0.351,1.098-0.505,2.268-0.06c-2.86,3.09-5.762,6.14-8.57,9.274c-9.667,10.8-19.462,21.495-28.86,32.525
	c-2.855,3.354-5.015,7.485-6.703,11.59c-1.555,3.78,1.047,6.84,4.808,5.425c4.853-1.824,9.9-4.29,13.595-7.814
	c16.758-15.98,29.647-35.086,42.218-54.371c24.475-37.545,44.075-77.609,61.182-118.952c0.74-1.792,1.54-3.558,2.845-6.56
	c3.29,6.59,7.1,11.255,3.555,18.31c-14.13,28.127-27.9,56.432-41.778,84.688c-1.525,3.109-2.887,6.295-4.327,9.439
	C190.513,329.075,190.5,329.035,190.5,329.035z"/>
<path fill-rule="evenodd" clip-rule="evenodd" fill="#FFFFFF" d="M301.186,292.925c2.14-0.085,4.279-0.165,6.42-0.25
	c16.254-1.295,32.489-2.995,48.77-3.739c10.785-0.49,21.65,0.09,32.445,0.754c8,0.496,14.55,4.646,19.834,10.516
	c1.556,1.73,2.181,4.305,2.615,7.425c-26.664-15.944-55.024-9.045-82.56-8.53c24.825,9.66,49.155,21.65,76.979,21.28
	c0.065,0.41,0.136,0.82,0.211,1.235c-0.9,0.734-1.705,1.64-2.715,2.175c-8.351,4.455-17.365,5.595-26.181,2.715
	c-20.08-6.56-39.944-13.78-59.84-20.885c-1.75-0.625-3.09-2.39-4.62-3.625c0.175-0.735,0.35-1.476,0.525-2.21
	c-18.26,3.615-36.676,6.595-54.735,11.02c-19.875,4.87-39.415,11.11-59.13,16.655c-2.825,0.795-5.803,1.056-8.708,1.569
	c0.002,0.006,0.015,0.046,0.015,0.051c3.337-2.33,6.377-5.4,10.06-6.895c31.305-12.701,63.353-22.966,96.853-28.181
	C298.7,293.805,299.93,293.29,301.186,292.925z"/>
<path fill-rule="evenodd" clip-rule="evenodd" fill="#FFFFFF" d="M245.89,202.25c-0.723-2.95-1.445-5.897-2.167-8.848
	c-0.058-2.393-0.683-4.942-0.073-7.152c2.775-10.083,5.897-20.07,9.1-30.772c0.36,1.145,0.81,1.822,0.73,2.43
	c-1.825,13.972-3.685,27.94-5.66,41.892C247.695,200.69,246.558,201.435,245.89,202.25z"/>
</svg>
