<?xml version="1.0" encoding="utf-8"?>
<!-- Generator: Adobe Illustrator 16.0.0, SVG Export Plug-In . SVG Version: 6.00 Build 0)  -->
<!DOCTYPE svg PUBLIC "-//W3C//DTD SVG 1.1//EN" "http://www.w3.org/Graphics/SVG/1.1/DTD/svg11.dtd">
<svg version="1.1" id="Layer_1" xmlns="http://www.w3.org/2000/svg" xmlns:xlink="http://www.w3.org/1999/xlink" x="0px" y="0px"
	 width="512px" height="512px" viewBox="0 0 512 512" enable-background="new 0 0 512 512" xml:space="preserve">
<path fill-rule="evenodd" clip-rule="evenodd" fill="none" d="M0,512C0,341.365,0,170.73,0,0c170.592,0,341.22,0,512,0
	c0,170.603,0,341.3,0,512C341.41,512,170.723,512,0,512z M230.342,284.91c-2.482,4.925-4.722,9.484-7.09,13.97
	c-0.5,0.95-1.32,1.92-2.245,2.435c-8.532,4.746-22.555,2.261-28.925-5.135c-3.152-3.654-6.007-7.574-9.237-11.16
	c-3.475-3.859-7.828-6.369-13.188-5.99c-1.773,0.125-3.46,1.44-5.185,2.211c1.055,1.385,1.842,3.17,3.212,4.085
	c6.022,4.034,10.205,9.435,13.13,16c6.475,14.53,15.613,20.1,31.485,19.364c3.08-0.145,6.153-0.334,9.595-0.524
	c0,4.06-0.115,7.545,0.022,11.021c0.368,9.205,1.478,18.564-8.925,23.85c-1.75,0.89-2.365,3.3,0.48,4.029
	c8.297,2.121,22.917-3.564,22.237-14.779c-0.572-9.471-0.3-19-0.03-28.49c0.1-3.475,1.27-6.92,1.95-10.375
	c0.508,0.1,1.015,0.205,1.522,0.305c0.127,0.805,0.375,1.615,0.363,2.42c-0.218,14.32-0.272,28.65-0.875,42.961
	c-0.123,2.885-2.377,5.664-3.587,8.52c-0.59,1.391-1.033,2.845-1.543,4.27c1.525,0.396,3.095,1.256,4.568,1.105
	c6.79-0.68,13.877-7.37,14.982-14.25c0.69-4.266,1.1-8.609,1.175-12.925c0.17-10.165,0.025-20.335,0.115-30.495
	c0.015-1.54,0.635-3.07,0.975-4.605c0.71,0.11,1.415,0.221,2.125,0.33c0,1.926-0.015,3.85,0,5.78
	c0.104,12.319,0.159,24.646,0.345,36.965c0.141,9.556,5.32,15.525,14.035,18.53c1.805,0.62,4.035,0.015,6.07-0.025
	c-0.45-1.939-0.711-3.949-1.4-5.8c-1.325-3.521-4.045-6.91-4.16-10.42c-0.455-14.14-0.14-28.31-0.074-42.465
	c0-0.155,0.459-0.31,1.734-1.11c0.66,3.881,1.65,7.32,1.76,10.785c0.305,9.66,0.235,19.33,0.34,28.995
	c0.065,5.899,2.846,10.2,8.035,12.83c5.195,2.635,10.555,3.11,17.32,0.79c-2.335-2.15-3.596-3.655-5.17-4.695
	c-4.766-3.14-6.66-7.311-6.445-13.105c0.38-9.984,0.35-20,0.025-29.984c-0.301-9.26-1.465-18.405-10.225-25.02
	c7.1-1.391,13.479-2.381,19.725-3.92c13.585-3.355,25.08-9.761,32.1-22.621c0.7-1.279,3.135-2.375,4.705-2.299
	c18.99,0.92,37.92,2.454,56.35,7.604c1.235,0.345,2.556,0.405,3.84,0.6c0.096-0.64,0.19-1.274,0.285-1.909
	c-20.175-6.375-41.189-7.866-62.22-9.045c-0.354-4.375,2.216-4.663,5.095-4.45c17.431,1.275,34.86,2.59,52.295,3.85
	c1.771,0.13,3.556,0.02,5.336,0.02c0.01-0.485,0.024-0.97,0.039-1.455c-19.944-4.25-40.274-4.755-60.93-4.985
	c0.495-3.038,0.96-5.627,1.33-8.232c2.88-20.08,2.005-39.298-12.29-55.645c-1.085-1.243-1.065-3.645-1.149-5.525
	c-0.351-7.932,0.08-15.955-0.996-23.777c-0.885-6.467-3.274-7.925-9.465-5.825c-8.295,2.817-16.114,7.02-24.27,10.287
	c-2.73,1.095-5.995,1.973-8.8,1.545c-17.97-2.745-35.883-3.027-53.65,0.99c-3.64,0.825-6.04,0.103-9.193-1.455
	c-8.292-4.092-16.842-7.708-25.47-11.052c-4.502-1.748-7.35,0.195-8.67,5.182c-2.26,8.56-2.785,17.115-0.963,25.715
	c0.72,3.402,0.283,5.96-1.99,8.637c-7.075,8.325-10.723,18.12-10.39,28.995c0.303,9.895,1.485,19.765,2.32,30.165
	c-18.883,0.743-38.575,1.072-57.77,5.835c1.472,0.89,2.847,0.8,4.222,0.7c17.435-1.31,34.873-2.59,52.303-3.953
	c3.105-0.243,4.675,0.855,4.677,4.013c-10.547,1.06-20.978,1.88-31.337,3.225c-10.14,1.32-20.19,3.265-30.627,6.834
	c1.315,1.07,1.595,1.476,1.802,1.44c1.628-0.274,3.263-0.555,4.863-0.97c17.498-4.55,35.32-6.83,53.36-7.38
	c1.792-0.056,4.42,0.885,5.325,2.25c8.647,13.034,21.25,19.854,35.95,23.45C220.533,283.205,225.79,284.02,230.342,284.91z"/>
<path fill-rule="evenodd" clip-rule="evenodd" fill="#FFFFFF" d="M230.342,284.91c-4.552-0.891-9.81-1.705-14.96-2.965
	c-14.7-3.596-27.302-10.416-35.95-23.45c-0.905-1.365-3.533-2.306-5.325-2.25c-18.04,0.55-35.862,2.83-53.36,7.38
	c-1.6,0.415-3.235,0.695-4.863,0.97c-0.207,0.035-0.487-0.37-1.802-1.44c10.438-3.569,20.487-5.514,30.627-6.834
	c10.36-1.345,20.79-2.166,31.337-3.225c-0.002-3.158-1.572-4.255-4.677-4.013c-17.43,1.362-34.868,2.643-52.303,3.953
	c-1.375,0.1-2.75,0.19-4.222-0.7c19.195-4.763,38.887-5.092,57.77-5.835c-0.835-10.4-2.018-20.27-2.32-30.165
	c-0.333-10.875,3.315-20.67,10.39-28.995c2.272-2.677,2.71-5.235,1.99-8.637c-1.822-8.6-1.297-17.155,0.963-25.715
	c1.32-4.987,4.167-6.93,8.67-5.182c8.627,3.345,17.177,6.96,25.47,11.052c3.153,1.558,5.553,2.28,9.193,1.455
	c17.767-4.018,35.68-3.735,53.65-0.99c2.805,0.428,6.069-0.45,8.8-1.545c8.155-3.268,15.975-7.47,24.27-10.287
	c6.19-2.1,8.58-0.643,9.465,5.825c1.076,7.823,0.646,15.845,0.996,23.777c0.084,1.88,0.064,4.283,1.149,5.525
	c14.295,16.347,15.17,35.565,12.29,55.645c-0.37,2.605-0.835,5.195-1.33,8.232c20.655,0.23,40.985,0.735,60.93,4.985
	c-0.015,0.485-0.029,0.97-0.039,1.455c-1.78,0-3.565,0.11-5.336-0.02c-17.435-1.26-34.864-2.575-52.295-3.85
	c-2.879-0.212-5.449,0.075-5.095,4.45c21.03,1.18,42.045,2.67,62.22,9.045c-0.095,0.635-0.189,1.27-0.285,1.909
	c-1.284-0.194-2.604-0.255-3.84-0.6c-18.43-5.15-37.359-6.685-56.35-7.604c-1.57-0.076-4.005,1.02-4.705,2.299
	c-7.02,12.86-18.515,19.266-32.1,22.621c-6.245,1.539-12.625,2.529-19.725,3.92c8.76,6.614,9.924,15.76,10.225,25.02
	c0.324,9.984,0.354,20-0.025,29.984c-0.215,5.795,1.68,9.966,6.445,13.105c1.574,1.04,2.835,2.545,5.17,4.695
	c-6.766,2.32-12.125,1.845-17.32-0.79c-5.189-2.63-7.97-6.931-8.035-12.83c-0.104-9.665-0.035-19.335-0.34-28.995
	c-0.109-3.465-1.1-6.904-1.76-10.785c-1.275,0.801-1.734,0.955-1.734,1.11c-0.065,14.155-0.381,28.325,0.074,42.465
	c0.115,3.51,2.835,6.899,4.16,10.42c0.689,1.851,0.95,3.86,1.4,5.8c-2.035,0.04-4.266,0.646-6.07,0.025
	c-8.715-3.005-13.895-8.975-14.035-18.53c-0.186-12.319-0.24-24.646-0.345-36.965c-0.015-1.931,0-3.854,0-5.78
	c-0.71-0.109-1.415-0.22-2.125-0.33c-0.34,1.535-0.96,3.065-0.975,4.605c-0.09,10.16,0.055,20.33-0.115,30.495
	c-0.075,4.315-0.485,8.659-1.175,12.925c-1.105,6.88-8.192,13.57-14.982,14.25c-1.473,0.15-3.042-0.71-4.568-1.105
	c0.51-1.425,0.953-2.879,1.543-4.27c1.21-2.855,3.465-5.635,3.587-8.52c0.603-14.311,0.657-28.641,0.875-42.961
	c0.012-0.805-0.235-1.615-0.363-2.42c-0.507-0.1-1.015-0.205-1.522-0.305c-0.68,3.455-1.85,6.9-1.95,10.375
	c-0.27,9.49-0.542,19.02,0.03,28.49c0.68,11.215-13.94,16.9-22.237,14.779c-2.845-0.729-2.23-3.14-0.48-4.029
	c10.402-5.285,9.292-14.645,8.925-23.85c-0.138-3.476-0.022-6.961-0.022-11.021c-3.442,0.19-6.515,0.38-9.595,0.524
	c-15.872,0.735-25.01-4.834-31.485-19.364c-2.925-6.565-7.107-11.966-13.13-16c-1.37-0.915-2.158-2.7-3.212-4.085
	c1.725-0.771,3.412-2.086,5.185-2.211c5.36-0.379,9.712,2.131,13.188,5.99c3.23,3.586,6.085,7.506,9.237,11.16
	c6.37,7.396,20.393,9.881,28.925,5.135c0.925-0.515,1.745-1.484,2.245-2.435C225.62,294.395,227.86,289.835,230.342,284.91z
	 M257.025,278.52c0.004-0.324,0.015-0.654,0.02-0.979c8.325,0,16.65,0.13,24.971-0.07c2.965-0.069,5.949-0.755,8.854-1.45
	c21.655-5.194,32.225-24.714,24.864-45.777c-3.225-9.24-9.539-15.215-19.125-17.147c-4.344-0.875-8.92-0.88-13.385-0.843
	c-14.645,0.125-29.285,0.57-43.932,0.645c-6.152,0.033-12.315-0.927-18.458-0.78c-13.913,0.327-24.513,9.21-27.527,22.55
	c-3.578,15.833,4.045,31.397,19.015,37.768c4.995,2.125,10.43,3.744,15.805,4.35C237.705,277.865,247.388,277.995,257.025,278.52z"
	/>
<path fill-rule="evenodd" clip-rule="evenodd" fill="none" d="M257.025,278.52c-9.638-0.524-19.32-0.654-28.898-1.734
	c-5.375-0.605-10.81-2.225-15.805-4.35c-14.97-6.371-22.592-21.936-19.015-37.768c3.015-13.34,13.615-22.223,27.527-22.55
	c6.143-0.147,12.305,0.813,18.458,0.78c14.647-0.075,29.288-0.52,43.932-0.645c4.465-0.038,9.041-0.032,13.385,0.843
	c9.586,1.932,15.9,7.907,19.125,17.147c7.36,21.063-3.209,40.583-24.864,45.777c-2.905,0.695-5.89,1.381-8.854,1.45
	c-8.32,0.2-16.646,0.07-24.971,0.07C257.04,277.865,257.029,278.195,257.025,278.52z M230.067,242.067
	c-0.065-7.08-3.9-12.575-8.81-12.623c-4.87-0.047-8.88,5.498-9.037,12.493c-0.158,7.047,3.935,13.078,8.915,13.132
	C226.185,255.125,230.135,249.375,230.067,242.067z M282.814,242.072c-0.064,7.305,3.886,13.058,8.926,12.998
	c5.064-0.06,8.92-5.813,8.785-13.123c-0.131-7.162-3.976-12.557-8.91-12.505C286.715,229.495,282.875,235.007,282.814,242.072z"/>
<path fill-rule="evenodd" clip-rule="evenodd" fill="#FFFFFF" d="M230.067,242.067c0.067,7.308-3.882,13.058-8.933,13.002
	c-4.98-0.055-9.072-6.085-8.915-13.132c0.157-6.995,4.167-12.54,9.037-12.493C226.167,229.493,230.002,234.987,230.067,242.067z"/>
<path fill-rule="evenodd" clip-rule="evenodd" fill="#FFFFFF" d="M282.814,242.072c0.061-7.065,3.9-12.577,8.801-12.63
	c4.935-0.052,8.779,5.343,8.91,12.505c0.135,7.31-3.721,13.063-8.785,13.123C286.7,255.13,282.75,249.377,282.814,242.072z"/>
</svg>
