<?xml version="1.0" encoding="utf-8"?>
<!-- Generator: Adobe Illustrator 16.0.0, SVG Export Plug-In . SVG Version: 6.00 Build 0)  -->
<!DOCTYPE svg PUBLIC "-//W3C//DTD SVG 1.1//EN" "http://www.w3.org/Graphics/SVG/1.1/DTD/svg11.dtd">
<svg version="1.1" id="Layer_1" xmlns="http://www.w3.org/2000/svg" xmlns:xlink="http://www.w3.org/1999/xlink" x="0px" y="0px"
	 width="512px" height="512px" viewBox="0 0 512 512" enable-background="new 0 0 512 512" xml:space="preserve">
<g id="Layer_1_1_">
</g>
<path fill-rule="evenodd" clip-rule="evenodd" fill="#FFFFFF" d="M341.903,266.51c-4.227-8.487-15.93-15.549-31.482-3.295
	c-21.021,16.564-54.787,16.564-54.787,16.564s-33.768,0-54.789-16.564c-15.553-12.254-27.256-5.192-31.48,3.295
	c-7.367,14.798,0.957,21.951,19.738,34.008c16.043,10.299,38.086,14.146,52.32,15.584l-11.881,11.882
	c-16.738,16.736-32.895,32.893-44.104,44.103c-6.701,6.7-6.701,17.566,0,24.27l2.023,2.021c3.342,3.343,7.721,5.018,12.102,5.025
	h0.063c4.383-0.008,8.762-1.684,12.104-5.025l44.102-44.102c16.738,16.735,32.893,32.892,44.104,44.101
	c6.699,6.701,17.566,6.701,24.268,0l2.021-2.022c6.703-6.702,6.701-17.567,0-24.269l-44.102-44.103l-11.918-11.918
	c14.246-1.467,36.053-5.334,51.961-15.547C340.946,288.461,349.268,281.308,341.903,266.51L341.903,266.51z M255.633,145.718
	c20.334,0,36.82,16.486,36.82,36.82c0,20.334-16.486,36.818-36.82,36.818c-20.336,0-36.82-16.484-36.82-36.818
	C218.813,162.204,235.297,145.718,255.633,145.718L255.633,145.718z M255.633,257.377c41.332,0,74.84-33.506,74.84-74.839
	c0-41.332-33.508-74.84-74.84-74.84c-41.334,0-74.84,33.508-74.84,74.84C180.793,223.871,214.299,257.377,255.633,257.377
	L255.633,257.377z"/>
<rect x="0" fill-rule="evenodd" clip-rule="evenodd" fill="none" width="512" height="512"/>
</svg>
