<?xml version="1.0" encoding="utf-8"?>
<!-- Generator: Adobe Illustrator 16.0.0, SVG Export Plug-In . SVG Version: 6.00 Build 0)  -->
<!DOCTYPE svg PUBLIC "-//W3C//DTD SVG 1.1//EN" "http://www.w3.org/Graphics/SVG/1.1/DTD/svg11.dtd">
<svg version="1.1" id="Layer_1" xmlns="http://www.w3.org/2000/svg" xmlns:xlink="http://www.w3.org/1999/xlink" x="0px" y="0px"
	 width="512px" height="512px" viewBox="0 0 512 512" enable-background="new 0 0 512 512" xml:space="preserve">
<path fill-rule="evenodd" clip-rule="evenodd" fill="none" d="M512,512c-170.635,0-341.27,0-512,0C0,341.404,0,170.783,0,0
	c170.605,0,341.305,0,512,0C512,170.595,512,341.279,512,512z M271.41,256.445c0-23.005,0-46.01,0-69.015
	c-0.006-9.667-0.01-19.335-0.04-29.005c-0.015-4.215-1.761-8.18-5.695-9.07c-3.5-0.792-7.575,0.35-11.26,1.225
	c-1.59,0.377-2.84,2.22-4.23,3.42c-19.29,16.678-38.525,33.417-57.945,49.945c-1.93,1.645-4.96,2.785-7.495,2.818
	c-17.995,0.24-36,0.095-54,0.145c-9.235,0.025-13.06,3.887-13.07,13.075c-0.02,23.505-0.015,47.008-0.005,70.513
	c0.005,10.01,3.56,13.63,13.46,13.64c17.33,0.025,34.665-0.13,51.995,0.15c2.845,0.045,6.24,1.26,8.395,3.09
	c20.195,17.165,40.235,34.505,60.16,51.975c4.29,3.771,8.78,5.73,14.08,3.396c5.21-2.29,5.7-7.175,5.69-12.285
	C271.37,319.125,271.41,287.785,271.41,256.445z M394.21,251.52c-0.63-5.385-1.319-15.72-3.135-25.853
	c-4.796-26.732-15.931-50.725-32.735-72.05c-4.23-5.373-10.09-6.225-14.92-2.558c-4.745,3.603-5.415,9.665-1.65,15.095
	c0.666,0.958,1.405,1.863,2.105,2.795c37.84,50.245,39.115,118.995,3.15,170.6c-1.905,2.735-4.061,5.315-5.76,8.165
	c-3.301,5.525-1.195,12.08,4.51,14.735c4.965,2.31,9.629,0.76,13.8-4.72C382.335,327.814,393.67,293.99,394.21,251.52z
	 M357.445,256.555c-0.016-17.137-2.235-31.97-9.16-47.707c-4.52-10.283-10.45-20.01-16.42-29.563
	c-3.266-5.213-9.355-5.74-14.08-2.49c-4.77,3.288-5.85,9.263-2.6,14.575c0.604,0.992,1.334,1.91,1.984,2.877
	c17.63,26.188,23.35,54.725,16.846,85.657c-2.986,14.201-8.756,27.195-17.121,39.031c-2.504,3.539-4.85,7.5-2.42,11.484
	c1.711,2.82,4.875,5.5,7.965,6.551c4.58,1.559,8.211-1.285,10.916-5.131C349.25,309.255,357.404,284.205,357.445,256.555z
	 M318.445,254.84c0.024-15.16-4.646-32.087-13.096-45.455c-3.99-6.315-9.765-8.147-15.154-4.81
	c-5.311,3.292-6.285,9.417-2.67,15.735c13.619,23.81,13.66,47.725,0.375,71.68c-3.771,6.795-2.655,12.85,3.035,16
	c5.475,3.029,11.234,0.965,15.004-5.516C314.141,288.38,318.555,273.23,318.445,254.84z"/>
<path fill-rule="evenodd" clip-rule="evenodd" fill="#FFFFFF" d="M271.41,256.445c0,31.34-0.04,62.68,0.04,94.015
	c0.01,5.11-0.48,9.995-5.69,12.285c-5.3,2.335-9.79,0.375-14.08-3.396c-19.925-17.47-39.965-34.81-60.16-51.975
	c-2.155-1.83-5.55-3.045-8.395-3.09c-17.33-0.28-34.665-0.125-51.995-0.15c-9.9-0.01-13.455-3.63-13.46-13.64
	c-0.01-23.505-0.015-47.008,0.005-70.513c0.01-9.188,3.835-13.05,13.07-13.075c18-0.05,36.005,0.095,54-0.145
	c2.535-0.033,5.565-1.173,7.495-2.818c19.42-16.527,38.655-33.267,57.945-49.945c1.39-1.2,2.64-3.042,4.23-3.42
	c3.685-0.875,7.76-2.018,11.26-1.225c3.935,0.89,5.681,4.855,5.695,9.07c0.03,9.67,0.034,19.338,0.04,29.005
	C271.41,210.435,271.41,233.44,271.41,256.445z"/>
<path fill-rule="evenodd" clip-rule="evenodd" fill="#FFFFFF" d="M394.21,251.52c-0.54,42.47-11.875,76.294-34.635,106.21
	c-4.171,5.479-8.835,7.029-13.8,4.72c-5.705-2.655-7.811-9.21-4.51-14.735c1.699-2.85,3.854-5.43,5.76-8.165
	c35.965-51.604,34.689-120.355-3.15-170.6c-0.7-0.933-1.439-1.838-2.105-2.795c-3.765-5.43-3.095-11.492,1.65-15.095
	c4.83-3.667,10.689-2.815,14.92,2.558c16.805,21.325,27.939,45.317,32.735,72.05C392.891,235.8,393.58,246.135,394.21,251.52z"/>
<path fill-rule="evenodd" clip-rule="evenodd" fill="#FFFFFF" d="M357.445,256.555c-0.041,27.65-8.195,52.7-24.09,75.285
	c-2.705,3.846-6.336,6.689-10.916,5.131c-3.09-1.051-6.254-3.73-7.965-6.551c-2.43-3.984-0.084-7.945,2.42-11.484
	c8.365-11.836,14.135-24.83,17.121-39.031c6.504-30.932,0.784-59.469-16.846-85.657c-0.65-0.968-1.38-1.885-1.984-2.877
	c-3.25-5.313-2.17-11.288,2.6-14.575c4.725-3.25,10.814-2.723,14.08,2.49c5.97,9.552,11.9,19.28,16.42,29.563
	C355.21,224.585,357.43,239.417,357.445,256.555z"/>
<path fill-rule="evenodd" clip-rule="evenodd" fill="#FFFFFF" d="M318.445,254.84c0.109,18.391-4.305,33.54-12.506,47.635
	c-3.77,6.48-9.529,8.545-15.004,5.516c-5.69-3.15-6.806-9.205-3.035-16c13.285-23.955,13.244-47.87-0.375-71.68
	c-3.615-6.317-2.641-12.442,2.67-15.735c5.39-3.338,11.164-1.505,15.154,4.81C313.8,222.752,318.47,239.68,318.445,254.84z"/>
</svg>
