<?xml version="1.0" encoding="utf-8"?>
<!-- Generator: Adobe Illustrator 16.0.0, SVG Export Plug-In . SVG Version: 6.00 Build 0)  -->
<!DOCTYPE svg PUBLIC "-//W3C//DTD SVG 1.1//EN" "http://www.w3.org/Graphics/SVG/1.1/DTD/svg11.dtd">
<svg version="1.1" id="Layer_1" xmlns="http://www.w3.org/2000/svg" xmlns:xlink="http://www.w3.org/1999/xlink" x="0px" y="0px"
	 width="512px" height="512px" viewBox="0 0 512 512" enable-background="new 0 0 512 512" xml:space="preserve">
<path fill-rule="evenodd" clip-rule="evenodd" fill="none" d="M0,512C0,341.36,0,170.724,0,0c170.6,0,341.225,0,512,0
	c0,170.606,0,341.301,0,512C341.395,512,170.71,512,0,512z M96.728,327.49c50.362,0,100.33,0,150.297,0
	c-1.243,1.905-2.667,2.665-4.145,3.315c-9.147,4.021-18.393,7.83-27.395,12.155c-1.975,0.944-3.092,3.675-4.607,5.58
	c2.045,0.96,4.083,2.739,6.132,2.755c26.003,0.189,52.01,0.189,78.01,0c2.046-0.016,4.08-1.811,6.12-2.78
	c-1.435-1.83-2.484-4.45-4.364-5.35c-9.165-4.365-18.556-8.266-27.855-12.355c-1.46-0.64-2.859-1.415-4.29-2.125
	c0.065-0.46,0.125-0.925,0.19-1.385c1.89,0,3.779,0,5.67,0c46.005,0,92.015,0.005,138.02,0c6.565-0.005,6.59-0.021,6.59-6.615
	c0.006-51.164,0.006-102.332,0-153.497c0-6.692-0.02-6.703-6.97-6.703c-101.685-0.002-203.367,0-305.05,0c-1.968,0-3.933,0-6.353,0
	C96.728,216.264,96.728,271.48,96.728,327.49z"/>
<path fill-rule="evenodd" clip-rule="evenodd" fill="#FFFFFF" d="M96.728,327.49c0-56.01,0-111.227,0-167.004
	c2.42,0,4.385,0,6.353,0c101.683,0,203.365-0.002,305.05,0c6.95,0,6.97,0.01,6.97,6.703c0.006,51.165,0.006,102.333,0,153.497
	c0,6.595-0.024,6.61-6.59,6.615c-46.005,0.005-92.015,0-138.02,0c-1.891,0-3.78,0-5.67,0c-0.065,0.46-0.125,0.925-0.19,1.385
	c1.431,0.71,2.83,1.485,4.29,2.125c9.3,4.09,18.69,7.99,27.855,12.355c1.88,0.899,2.93,3.52,4.364,5.35
	c-2.04,0.97-4.074,2.765-6.12,2.78c-26,0.189-52.007,0.189-78.01,0c-2.05-0.016-4.087-1.795-6.132-2.755
	c1.515-1.905,2.632-4.636,4.607-5.58c9.002-4.325,18.248-8.135,27.395-12.155c1.478-0.65,2.902-1.41,4.145-3.315
	C197.058,327.49,147.09,327.49,96.728,327.49z M405.65,170.969c-100.101,0-199.521,0-299.173,0c0,48.765,0,97.192,0,146.007
	c1.815,0.085,3.438,0.226,5.06,0.226c95.86,0.01,191.717,0.01,287.578,0.005c6.52,0,6.529-0.021,6.529-6.655
	c0.006-44.67,0.006-89.34,0.006-134.009C405.65,174.759,405.65,172.977,405.65,170.969z"/>
<path fill-rule="evenodd" clip-rule="evenodd" fill="none" d="M405.65,170.969c0,2.008,0,3.79,0,5.573
	c0,44.669,0,89.339-0.006,134.009c0,6.635-0.01,6.655-6.529,6.655c-95.86,0.005-191.718,0.005-287.578-0.005
	c-1.623,0-3.245-0.141-5.06-0.226c0-48.814,0-97.242,0-146.007C206.13,170.969,305.55,170.969,405.65,170.969z M290,245.284
	c-0.485-0.172-0.975-0.345-1.46-0.518c0-2.433-0.185-4.88,0.04-7.29c0.345-3.643-0.94-4.978-4.745-4.955
	c-22.335,0.148-44.672,0.12-67.005,0.02c-3.335-0.015-4.843,0.913-4.81,4.495c0.118,12.83,0.103,25.665-0.052,38.495
	c-0.045,3.675,1.247,4.864,4.957,4.84c22.335-0.15,44.67-0.165,67.005,0.005c3.926,0.03,4.881-1.44,4.665-4.985
	c-0.245-3.989-0.055-8.01-0.055-12.015c0.47-0.1,0.94-0.2,1.415-0.295c6.09,5.49,12.18,10.979,18.87,17.01
	c0-17.58,0-34.145,0-51.782C302.005,234.461,296.005,239.871,290,245.284z M265.595,231.471c7.785,0.063,14.466-6.353,14.58-14
	c0.115-7.672-6.899-14.795-14.54-14.762c-7.51,0.032-14.155,6.813-14.189,14.475C251.41,225.091,257.665,231.406,265.595,231.471z
	 M249.462,217.344c0.04-7.732-6.425-14.505-13.985-14.65c-7.667-0.145-14.667,6.828-14.65,14.603
	c0.017,7.755,6.482,14.112,14.357,14.123C243.197,231.431,249.422,225.294,249.462,217.344z M211.143,245.374
	c-0.008,0-0.015,0-0.022,0c0-2.33-0.053-4.663,0.01-6.99c0.107-3.85-2.592-3.542-5.137-3.6c-2.678-0.063-5.083-0.01-4.983,3.745
	c0.118,4.49,0.093,8.987,0.003,13.477c-0.055,2.76,1.185,3.785,3.88,3.936c4.092,0.225,7.007-0.44,6.285-5.58
	C210.95,248.731,211.143,247.039,211.143,245.374z"/>
<path fill-rule="evenodd" clip-rule="evenodd" fill="#FFFFFF" d="M290,245.284c6.005-5.413,12.005-10.823,18.825-16.975
	c0,17.638,0,34.202,0,51.782c-6.69-6.03-12.78-11.52-18.87-17.01c-0.475,0.095-0.945,0.195-1.415,0.295
	c0,4.005-0.19,8.025,0.055,12.015c0.216,3.545-0.739,5.016-4.665,4.985c-22.335-0.17-44.67-0.155-67.005-0.005
	c-3.71,0.024-5.002-1.165-4.957-4.84c0.155-12.83,0.17-25.665,0.052-38.495c-0.033-3.583,1.475-4.51,4.81-4.495
	c22.333,0.1,44.67,0.128,67.005-0.02c3.805-0.022,5.09,1.313,4.745,4.955c-0.225,2.41-0.04,4.857-0.04,7.29
	C289.025,244.938,289.515,245.111,290,245.284z"/>
<path fill-rule="evenodd" clip-rule="evenodd" fill="#FFFFFF" d="M265.595,231.471c-7.93-0.065-14.185-6.38-14.149-14.288
	c0.035-7.662,6.68-14.442,14.189-14.475c7.641-0.033,14.655,7.09,14.54,14.762C280.061,225.119,273.38,231.534,265.595,231.471z"/>
<path fill-rule="evenodd" clip-rule="evenodd" fill="#FFFFFF" d="M249.462,217.344c-0.04,7.95-6.265,14.087-14.277,14.075
	c-7.875-0.01-14.34-6.368-14.357-14.123c-0.018-7.775,6.982-14.748,14.65-14.603C243.038,202.839,249.502,209.611,249.462,217.344z"
	/>
<path fill-rule="evenodd" clip-rule="evenodd" fill="#FFFFFF" d="M211.143,245.374c0,1.665-0.192,3.357,0.035,4.988
	c0.722,5.14-2.193,5.805-6.285,5.58c-2.695-0.15-3.935-1.175-3.88-3.936c0.09-4.49,0.115-8.987-0.003-13.477
	c-0.1-3.755,2.305-3.808,4.983-3.745c2.545,0.058,5.245-0.25,5.137,3.6c-0.063,2.327-0.01,4.66-0.01,6.99
	C211.127,245.374,211.135,245.374,211.143,245.374z"/>
</svg>
