<?xml version="1.0" encoding="utf-8"?>
<!-- Generator: Adobe Illustrator 16.0.0, SVG Export Plug-In . SVG Version: 6.00 Build 0)  -->
<!DOCTYPE svg PUBLIC "-//W3C//DTD SVG 1.1//EN" "http://www.w3.org/Graphics/SVG/1.1/DTD/svg11.dtd">
<svg version="1.1" id="Layer_1" xmlns="http://www.w3.org/2000/svg" xmlns:xlink="http://www.w3.org/1999/xlink" x="0px" y="0px"
	 width="512px" height="512px" viewBox="0 0 512 512" enable-background="new 0 0 512 512" xml:space="preserve">
<g id="Layer_1_1_">
</g>
<rect x="0" fill="none" width="512" height="512"/>
<path fill-rule="evenodd" clip-rule="evenodd" fill="#FFFFFF" d="M170.073,147.825h98.5c32.412,0,60.002,15.877,59.973,47.985
	c-0.025,26.809-9.732,37.237-29.675,49.029c1.705,1.405,13.133,4.814,16.97,6.705c6.145,3.028,9.76,6.09,13.803,10.2
	c11.314,11.504,13.424,22.021,13.424,40.066c0,41.868-40.496,62.918-79.494,62.918h-93.917L170.073,147.825L170.073,147.825z
	 M223.597,204.81l-0.007,28.167c25.371,0,49.21,3.342,49.21-24.166c0-25.469-26.969-21.272-49.228-21.272L223.597,204.81
	L223.597,204.81z M223.583,324.8c27.8,0,62.144,4.58,62.749-26.982c0.63-32.923-35.281-26.98-62.732-26.98L223.583,324.8
	L223.583,324.8z"/>
</svg>
