<?xml version="1.0" encoding="utf-8"?>
<!-- Generator: Adobe Illustrator 16.0.0, SVG Export Plug-In . SVG Version: 6.00 Build 0)  -->
<!DOCTYPE svg PUBLIC "-//W3C//DTD SVG 1.1//EN" "http://www.w3.org/Graphics/SVG/1.1/DTD/svg11.dtd">
<svg version="1.1" id="Layer_1" xmlns="http://www.w3.org/2000/svg" xmlns:xlink="http://www.w3.org/1999/xlink" x="0px" y="0px"
	 width="256px" height="256px" viewBox="0 0 256 256" enable-background="new 0 0 256 256" xml:space="preserve">
<g>
	<path fill-rule="evenodd" clip-rule="evenodd" fill="#68A8CD" d="M191.855,132.357l0.004,59.741l-68.602-9.95
		c-2.748-4.189-1.272-48.592-0.798-50.688c5.389-1.265,43.263-0.579,53.541-0.45c3.006,0.038,6.014,0.032,9.02-0.001
		C188.34,130.972,190.609,130.213,191.855,132.357L191.855,132.357z M256,119.825v18.58c-1.139,15.656-5.184,31.071-12.332,45.263
		c-14.338,28.473-32.369,46.037-60.664,60.336C161.811,254.712,144.959,256,121,256c-45.668,0-89.5-32.431-109.347-73.653
		C1.672,161.616,0,145.63,0,122C0,75.729,31.773,32.204,72.984,11.984C93.366,1.984,110.291,0,134,0
		c31.604,0,64.084,16.583,84.75,37.249C240.936,59.435,253.811,89.355,256,119.825L256,119.825z M64.176,130.771L91,130.99l6,0.008
		l7,0.012l12.438,0.034l-0.005,50.53l-52.201-7.21L64.176,130.771L64.176,130.771z M116.448,75.101l-0.408,50.283l-51.834,0.174
		L64.199,82.11L116.448,75.101L116.448,75.101z M191.893,64.152l-0.162,60.628l-69.129,0.559l0.046-51.293L191.893,64.152
		L191.893,64.152z"/>
	<polygon fill-rule="evenodd" clip-rule="evenodd" fill="#FEFEFE" points="122.647,74.046 122.601,125.339 191.73,124.781 
		191.893,64.152 122.647,74.046 	"/>
	<polygon fill-rule="evenodd" clip-rule="evenodd" fill="#FEFEFE" points="123.257,182.148 191.859,192.099 191.855,132.357 
		122.911,131.913 123.257,182.148 	"/>
	<polygon fill-rule="evenodd" clip-rule="evenodd" fill="#FEFEFE" points="64.231,174.364 116.432,181.574 116.437,131.044 
		104,131.01 97,130.998 91,130.99 64.176,130.771 64.231,174.364 	"/>
	<polygon fill-rule="evenodd" clip-rule="evenodd" fill="#FEFEFE" points="64.199,82.11 64.206,125.558 116.04,125.384 
		116.448,75.101 64.199,82.11 	"/>
	<path fill-rule="evenodd" clip-rule="evenodd" fill="#AECEE1" d="M123.257,182.148l-0.347-50.235l68.945,0.444
		c-1.246-2.145-3.516-1.386-6.836-1.349c-3.006,0.033-6.014,0.039-9.02,0.001c-10.277-0.129-48.152-0.814-53.541,0.45
		C121.985,133.557,120.509,177.959,123.257,182.148L123.257,182.148z"/>
</g>
</svg>
