<?xml version="1.0" encoding="utf-8"?>
<!-- Generator: Adobe Illustrator 16.0.0, SVG Export Plug-In . SVG Version: 6.00 Build 0)  -->
<!DOCTYPE svg PUBLIC "-//W3C//DTD SVG 1.1//EN" "http://www.w3.org/Graphics/SVG/1.1/DTD/svg11.dtd">
<svg version="1.1" id="Layer_1" xmlns="http://www.w3.org/2000/svg" xmlns:xlink="http://www.w3.org/1999/xlink" x="0px" y="0px"
	 width="128px" height="128px" viewBox="-191.362 -66.332 128 128" enable-background="new -191.362 -66.332 128 128"
	 xml:space="preserve">
<g>
	<rect x="-191.362" y="-66.332" fill-rule="evenodd" clip-rule="evenodd" fill="#D05461" width="128" height="128"/>
	<path fill-rule="evenodd" clip-rule="evenodd" fill="#FFFFFF" d="M-110.813-3.669c-1.13,1.056-2.305,2.075-3.38,3.188
		c-4.945,5.112-9.8,10.301-14.813,15.337c-2.42,2.438-5.033,4.725-8.225,6.201c-1.72,0.8-3.52,1.237-5.4,0.763
		c-3.033-0.775-4.633-3.281-4.458-6.826c0.17-3.356,1.307-6.469,2.632-9.5c1.925-4.425,4.025-8.781,6.05-13.169
		c2.45-5.319,4.963-10.618,7.33-15.975c0.775-1.755,1.17-3.674,1.72-5.531c0.1-0.368,0.075-0.781,0.1-1.174
		c-0.083-0.057-0.163-0.119-0.245-0.175c-0.593,0.594-1.28,1.13-1.775,1.8c-2.5,3.388-4.938,6.813-7.417,10.212
		c-2.645,3.618-5.225,7.3-8.025,10.806c-1.145,1.432-2.67,2.663-4.257,3.625c-3.067,1.856-6.58,0.238-7.655-3.275
		c-0.8-2.612-0.063-5.031,1.055-7.306c1.795-3.632,3.82-7.15,5.675-10.75c0.962-1.857,1.775-3.8,1.658-5.962
		c-0.088-1.413-0.72-2.582-1.833-3.45c-0.887-0.681-1.862-0.425-2.775-0.006c-2.025,0.932-3.512,2.475-4.825,4.213
		c-0.688,0.918-1.618,1.212-2.425,0.743c-1.005-0.575-1.368-1.625-0.7-2.649c1.77-2.707,4.032-4.925,7.137-6.113
		c3.45-1.313,6.295,0.113,8.238,3.163c1.482,2.313,1.762,4.831,0.957,7.356c-0.762,2.394-1.782,4.719-2.85,6.987
		c-1.338,2.85-2.92,5.587-4.245,8.431c-0.48,1.019-0.612,2.212-0.742,3.337c-0.05,0.413,0.262,0.963,0.592,1.263
		c0.132,0.125,0.837-0.15,1.1-0.419c1.433-1.481,2.97-2.9,4.145-4.568c3.193-4.531,6.18-9.206,9.343-13.762
		c1.6-2.3,3.32-4.525,5.15-6.644c1.163-1.344,2.613-2.475,4.458-2.838c2.825-0.543,5.468,1.744,5.705,4.844
		c0.17,2.119-0.08,4.194-0.817,6.156c-1.6,4.263-3.2,8.519-5,12.694c-2.788,6.431-5.82,12.763-8.595,19.207
		c-1.005,2.331-1.587,4.843-2.317,7.281c-0.15,0.463-0.113,0.969-0.175,1.75c0.943-0.55,1.73-0.925,2.413-1.431
		c3.225-2.369,5.925-5.281,8.625-8.206c4.354-4.7,8.725-9.4,13.192-14.006c1.512-1.556,3.275-2.906,5.37-3.737
		c3.8-1.5,7.325,0.356,8.2,4.331c0.38,1.738,0.18,3.457-0.212,5.175c-1.02,4.525-3.025,8.7-4.75,12.962
		c-1.55,3.806-3.025,7.638-4.463,11.488c-0.375,1.013-0.457,2.125-0.675,3.188c-0.112,0.544,0.188,0.925,0.675,0.9
		c0.888-0.038,1.838-0.051,2.643-0.375c2.646-1.051,4.738-2.919,6.795-4.807c1.5-1.381,2.925-2.831,4.388-4.25
		c1.225-1.201,2.188-1.207,3.4-0.025c0.95,0.913,1.899,1.832,2.813,2.775c0.905,0.925,0.987,2.006,0.075,2.894
		c-3.813,3.706-7.563,7.512-12.363,10.031c-3.22,1.699-6.6,2.625-10.25,1.418c-4.862-1.605-6.97-5.361-5.975-10.486
		c0.813-4.163,2.5-8.013,4.175-11.875c1.925-4.425,3.788-8.881,5.663-13.325c0.225-0.538,0.337-1.119,0.5-1.675
		C-110.593-3.519-110.705-3.594-110.813-3.669z"/>
</g>
</svg>
