<?xml version="1.0" encoding="utf-8"?>
<!-- Generator: Adobe Illustrator 16.0.0, SVG Export Plug-In . SVG Version: 6.00 Build 0)  -->
<!DOCTYPE svg PUBLIC "-//W3C//DTD SVG 1.1//EN" "http://www.w3.org/Graphics/SVG/1.1/DTD/svg11.dtd">
<svg version="1.1" id="Layer_1" xmlns="http://www.w3.org/2000/svg" xmlns:xlink="http://www.w3.org/1999/xlink" x="0px" y="0px"
	 width="50px" height="49.999px" viewBox="0 0 50 49.999" enable-background="new 0 0 50 49.999" xml:space="preserve">
<polygon fill="none" points="0,0 0,50 50,50 50,0 0,0 "/>
<path fill-rule="evenodd" clip-rule="evenodd" fill="#FFFFFF" d="M25,12c-7.178,0-13,5.968-13,13.33
	c0,5.888,3.725,10.884,8.891,12.647c0.651,0.122,0.888-0.289,0.888-0.644c0-0.315-0.011-1.154-0.018-2.266
	c-3.616,0.805-4.379-1.786-4.379-1.786c-0.591-1.542-1.443-1.951-1.443-1.951c-1.181-0.827,0.089-0.811,0.089-0.811
	c1.306,0.095,1.992,1.376,1.992,1.376c1.16,2.036,3.042,1.447,3.783,1.106c0.119-0.862,0.454-1.449,0.826-1.783
	c-2.887-0.336-5.922-1.479-5.922-6.587c0-1.456,0.507-2.645,1.338-3.577c-0.134-0.336-0.58-1.692,0.127-3.527
	c0,0,1.091-0.359,3.575,1.367c1.037-0.296,2.149-0.444,3.255-0.449c1.104,0.005,2.216,0.152,3.254,0.449
	c2.48-1.726,3.571-1.367,3.571-1.367c0.708,1.835,0.263,3.191,0.13,3.527c0.833,0.933,1.337,2.122,1.337,3.577
	c0,5.121-3.041,6.248-5.936,6.576c0.466,0.413,0.882,1.227,0.882,2.47c0,1.781-0.017,3.218-0.017,3.655
	c0,0.357,0.235,0.771,0.896,0.643C34.278,36.21,38,31.216,38,25.33C38,17.967,32.18,12,25,12L25,12z"/>
</svg>
