<?xml version="1.0" encoding="utf-8"?>
<!-- Generator: Adobe Illustrator 16.0.0, SVG Export Plug-In . SVG Version: 6.00 Build 0)  -->
<!DOCTYPE svg PUBLIC "-//W3C//DTD SVG 1.1//EN" "http://www.w3.org/Graphics/SVG/1.1/DTD/svg11.dtd">
<svg version="1.1" id="Layer_1" xmlns="http://www.w3.org/2000/svg" xmlns:xlink="http://www.w3.org/1999/xlink" x="0px" y="0px"
	 width="50px" height="49.999px" viewBox="0 0 50 49.999" enable-background="new 0 0 50 49.999" xml:space="preserve">
<polygon fill="none" points="0,0 0,50 50,50 50,0 0,0 "/>
<path fill-rule="evenodd" clip-rule="evenodd" fill="#FFFFFF" d="M16.08,12.999h17.84c1.693,0,3.08,1.386,3.08,3.081v17.839
	c0,1.694-1.387,3.08-3.08,3.08H16.08c-1.694,0-3.08-1.386-3.08-3.08V16.08C13,14.385,14.386,12.999,16.08,12.999L16.08,12.999z
	 M30.482,15.666L30.482,15.666c-0.594,0-1.082,0.486-1.082,1.08v2.586c0,0.594,0.488,1.081,1.082,1.081h2.713
	c0.594,0,1.08-0.487,1.08-1.081v-2.586c0-0.594-0.486-1.08-1.08-1.08H30.482L30.482,15.666z M34.286,23.149L34.286,23.149h-2.112
	c0.201,0.652,0.308,1.343,0.308,2.059c0,3.992-3.34,7.229-7.46,7.229c-4.12,0-7.459-3.236-7.459-7.229
	c0-0.716,0.109-1.407,0.308-2.059h-2.204v10.138c0,0.524,0.43,0.954,0.955,0.954h16.712c0.525,0,0.954-0.43,0.954-0.954V23.149
	L34.286,23.149z M25.021,20.277L25.021,20.277c-2.661,0-4.819,2.091-4.819,4.67c0,2.579,2.158,4.67,4.819,4.67
	c2.663,0,4.821-2.092,4.821-4.67C29.842,22.368,27.684,20.277,25.021,20.277L25.021,20.277z"/>
</svg>
