<?xml version="1.0" encoding="utf-8"?>
<!-- Generator: Adobe Illustrator 16.0.0, SVG Export Plug-In . SVG Version: 6.00 Build 0)  -->
<!DOCTYPE svg PUBLIC "-//W3C//DTD SVG 1.1//EN" "http://www.w3.org/Graphics/SVG/1.1/DTD/svg11.dtd">
<svg version="1.1" id="Layer_1" xmlns="http://www.w3.org/2000/svg" xmlns:xlink="http://www.w3.org/1999/xlink" x="0px" y="0px"
	 width="50px" height="50px" viewBox="0.58 1.528 50 50" enable-background="new 0.58 1.528 50 50" xml:space="preserve">
<polygon fill="none" points="0.58,1.528 0.58,51.529 50.58,51.529 50.58,1.528 0.58,1.528 "/>
<path fill="#FFFFFF" d="M39.58,18.132c-1.031,0.441-2.139,0.74-3.301,0.875c1.186-0.688,2.098-1.775,2.525-3.072
	c-1.109,0.636-2.34,1.098-3.646,1.348c-1.049-1.08-2.541-1.754-4.193-1.754c-3.172,0-5.745,2.486-5.745,5.553
	c0,0.436,0.051,0.859,0.148,1.266c-4.775-0.23-9.008-2.442-11.84-5.803c-0.495,0.82-0.778,1.774-0.778,2.793
	c0,1.927,1.015,3.627,2.556,4.623c-0.941-0.029-1.828-0.279-2.602-0.695c-0.001,0.023-0.001,0.047-0.001,0.07
	c0,2.692,1.98,4.936,4.608,5.446c-0.482,0.127-0.99,0.195-1.514,0.195c-0.371,0-0.73-0.035-1.08-0.1
	c0.73,2.207,2.852,3.813,5.365,3.857c-1.966,1.49-4.443,2.377-7.134,2.377c-0.464,0-0.922-0.025-1.37-0.078
	c2.542,1.576,5.561,2.496,8.806,2.496c10.566,0,16.343-8.463,16.343-15.803c0-0.24-0.006-0.48-0.016-0.719
	C37.836,20.224,38.807,19.245,39.58,18.132L39.58,18.132z"/>
</svg>
